Coordinates
version=1
nRows=11
nColumns=63
inDegrees=yes

Units are S.I. units (second, meters, Newtons, ...)
If the header above contains a line with 'inDegrees', this indicates whether rotational values are in degrees (yes) or radians (no).

endheader
time	pelvis_tilt	pelvis_list	pelvis_rotation	pelvis_tx	pelvis_ty	pelvis_tz	hip_flexion_r	hip_adduction_r	hip_rotation_r	knee_angle_r	knee_angle_r_beta	ankle_angle_r	subtalar_angle_r	mtp_angle_r	hip_flexion_l	hip_adduction_l	hip_rotation_l	knee_angle_l	knee_angle_l_beta	ankle_angle_l	subtalar_angle_l	mtp_angle_l	L5_S1_Flex_Ext	L5_S1_Lat_Bending	L5_S1_axial_rotation	L4_L5_Flex_Ext	L4_L5_Lat_Bending	L4_L5_axial_rotation	L3_L4_Flex_Ext	L3_L4_Lat_Bending	L3_L4_axial_rotation	L2_L3_Flex_Ext	L2_L3_Lat_Bending	L2_L3_axial_rotation	L1_L2_Flex_Ext	L1_L2_Lat_Bending	L1_L2_axial_rotation	L1_T12_Flex_Ext	L1_T12_Lat_Bending	L1_T12_axial_rotation	Abs_r3	Abs_r2	Abs_r1	Abs_t1	Abs_t2	neck_flexion	neck_bending	neck_rotation	arm_flex_r	arm_add_r	arm_rot_r	elbow_flex_r	pro_sup_r	wrist_flex_r	wrist_dev_r	arm_flex_l	arm_add_l	arm_rot_l	elbow_flex_l	pro_sup_l	wrist_flex_l	wrist_dev_l
0.000000	-0.137312	-3.427455	88.631585	0.254716	0.985219	0.409415	5.293292	-1.835758	-15.707019	5.211521	0.090958	19.679648	18.105616	0.000000	6.913082	2.727473	-0.647728	6.730334	0.117466	11.894062	-18.136253	0.000000	0.287540	-0.482155	0.701389	0.533990	-0.641266	0.745226	0.472399	-1.172312	0.745226	0.328629	-1.172312	0.613715	0.267009	-0.983211	0.569878	0.164300	-0.746858	0.526042	2.053866	-5.454235	3.900915	0.000000	0.000000	24.864094	6.372654	-13.064281	33.428000	-14.390613	76.078275	57.812755	87.615364	6.247744	0.120020	23.920444	-16.703592	52.519490	67.026469	89.108736	15.187313	16.583394
0.016667	-0.447827	-3.373032	88.090069	0.255974	0.985929	0.409391	5.575912	-2.186626	-15.444271	5.833174	0.101808	19.678517	18.138014	0.000000	6.834429	2.972556	-1.447587	6.562857	0.114543	11.397512	-18.193739	0.000000	0.267216	-0.521465	0.740576	0.496246	-0.693548	0.786862	0.439008	-1.267890	0.786862	0.305401	-1.267890	0.648004	0.248136	-1.063371	0.601718	0.152687	-0.807749	0.555432	1.908694	-5.898915	4.118863	0.000000	0.000000	25.011937	7.319646	-11.662085	32.993448	-14.100233	75.735537	57.661444	82.544998	6.080181	-0.292691	23.006826	-17.081311	51.456851	67.518297	88.966486	14.760641	16.688399
0.033333	-0.686084	-3.328486	87.637892	0.257024	0.986474	0.409272	5.800242	-2.452924	-15.182756	6.329942	0.110478	19.709998	18.159113	0.000000	6.749777	3.154506	-2.075070	6.421216	0.112071	11.022307	-18.238451	0.000000	0.250705	-0.552485	0.780166	0.465584	-0.734806	0.828927	0.411883	-1.343313	0.828927	0.286531	-1.343313	0.682645	0.232805	-1.126628	0.633885	0.143253	-0.855800	0.585125	1.790761	-6.249826	4.339050	0.000000	0.000000	25.149254	8.101131	-10.546533	32.543359	-13.887304	75.291080	57.551529	78.389302	6.013536	-0.577233	22.251688	-17.378298	50.592891	67.939356	88.855059	14.423801	16.808999
0.050000	-0.858913	-3.293363	87.267078	0.257880	0.986867	0.409075	5.972495	-2.642876	-14.924506	6.713708	0.117176	19.769647	18.170302	0.000000	6.661160	3.279480	-2.546892	6.303619	0.110019	10.756989	-18.271516	0.000000	0.237684	-0.575936	0.820099	0.441403	-0.765996	0.871356	0.390491	-1.400332	0.871356	0.271649	-1.400332	0.717587	0.220713	-1.174450	0.666331	0.135813	-0.892126	0.615075	1.697752	-6.515109	4.561147	0.000000	0.000000	25.276334	8.730486	-9.691379	32.083832	-13.744664	74.762403	57.478929	75.063591	6.033350	-0.740457	21.645112	-17.601469	49.915347	68.293532	88.771727	14.162412	16.936950
0.066667	-0.973143	-3.267213	86.969654	0.258558	0.987124	0.408814	6.098881	-2.764701	-14.671552	6.996350	0.122109	19.853021	18.172969	0.000000	6.570611	3.353640	-2.879769	6.208275	0.108355	10.590102	-18.294060	0.000000	0.227827	-0.592537	0.860317	0.423098	-0.788075	0.914087	0.374297	-1.440695	0.914087	0.260384	-1.440695	0.752778	0.211560	-1.208302	0.699008	0.130180	-0.917840	0.645238	1.627347	-6.702901	4.784827	0.000000	0.000000	25.393468	9.221088	-9.070376	31.620965	-13.665149	74.167009	57.439563	72.483181	6.125161	-0.789218	21.177183	-17.757738	49.411958	68.584712	88.713760	13.962098	17.064008
0.083333	-1.035605	-3.249582	86.737644	0.259076	0.987259	0.408504	6.185613	-2.826623	-14.425924	7.189751	0.125485	19.955677	18.168501	0.000000	6.480164	3.383144	-3.090419	6.133394	0.107048	10.510189	-18.307210	0.000000	0.220811	-0.603008	0.900761	0.410068	-0.802000	0.957058	0.362770	-1.466153	0.957058	0.252365	-1.466153	0.788165	0.205045	-1.229653	0.731868	0.126171	-0.934059	0.675570	1.577230	-6.821342	5.009760	0.000000	0.000000	25.500947	9.586314	-8.657277	31.160858	-13.641597	73.522399	57.429351	70.563387	6.274511	-0.730369	20.837983	-17.854020	49.070461	68.816780	88.678428	13.808478	17.181929
0.100000	-1.053130	-3.240020	86.563073	0.259448	0.987285	0.408162	6.238901	-2.836863	-14.189654	7.305790	0.127510	20.073172	18.158287	0.000000	6.391852	3.374152	-3.195557	6.077183	0.106067	10.505794	-18.312094	0.000000	0.216310	-0.608066	0.941370	0.401710	-0.808728	1.000206	0.355376	-1.478453	1.000206	0.247221	-1.478453	0.823699	0.200866	-1.239969	0.764863	0.123600	-0.941895	0.706028	1.545083	-6.878570	5.235619	0.000000	0.000000	25.599059	9.839540	-8.425835	30.709607	-13.666845	72.846072	57.444211	69.219525	6.466940	-0.570765	20.617595	-17.897229	48.878594	68.993625	88.663000	13.687176	17.282468
0.116667	-1.032546	-3.238074	86.437966	0.259690	0.987217	0.407800	6.264958	-2.803642	-13.964772	7.356348	0.128392	20.201061	18.143715	0.000000	6.307708	3.332824	-3.211900	6.037851	0.105380	10.565460	-18.309838	0.000000	0.214001	-0.608434	0.982087	0.397422	-0.809217	1.043468	0.351582	-1.479346	1.043468	0.244582	-1.479346	0.859326	0.198721	-1.240718	0.797946	0.122280	-0.942464	0.736566	1.528589	-6.882723	5.462075	0.000000	0.000000	25.688096	9.994143	-8.349805	30.273313	-13.733730	72.155532	57.480064	68.366912	6.687987	-0.317259	20.506102	-17.894282	48.824095	69.119132	88.664748	13.583812	17.357382
0.133333	-0.980684	-3.243292	86.354348	0.259820	0.987070	0.407436	6.269994	-2.735182	-13.753308	7.353306	0.128339	20.334902	18.126173	0.000000	6.229766	3.265320	-3.156164	6.013608	0.104957	10.677731	-18.301569	0.000000	0.213559	-0.604828	1.022853	0.396600	-0.804422	1.086781	0.350856	-1.470580	1.086781	0.244076	-1.470580	0.894996	0.198311	-1.233366	0.831068	0.122027	-0.936879	0.767140	1.525428	-6.841940	5.688802	0.000000	0.000000	25.768348	10.063501	-8.402939	29.858074	-13.835089	71.468277	57.532829	67.920862	6.923193	0.023294	20.493588	-17.852091	48.894701	69.197187	88.680940	13.484008	17.398426
0.150000	-0.904374	-3.255221	86.304245	0.259851	0.986858	0.407084	6.260222	-2.639704	-13.557295	7.308544	0.127558	20.470251	18.107049	0.000000	6.160059	3.177798	-3.045065	6.002662	0.104766	10.831150	-18.288414	0.000000	0.214659	-0.597970	1.063608	0.398643	-0.795301	1.130084	0.352663	-1.453905	1.130084	0.245333	-1.453905	0.930657	0.199332	-1.219381	0.864182	0.122656	-0.926256	0.797706	1.533285	-6.764361	5.915469	0.000000	0.000000	25.840104	10.060990	-8.558991	29.469988	-13.963760	70.801810	57.598425	67.796692	7.158099	0.444042	20.570135	-17.777573	49.078150	69.231677	88.708849	13.373385	17.397355
0.166667	-0.810446	-3.273411	86.279681	0.259802	0.986595	0.406759	6.241852	-2.525431	-13.378763	7.233943	0.126256	20.602664	18.087731	0.000000	6.100621	3.076419	-2.895320	6.003221	0.104776	11.014261	-18.271500	0.000000	0.216976	-0.588579	1.104294	0.402947	-0.782810	1.173312	0.356471	-1.431071	1.173312	0.247982	-1.431071	0.966257	0.201484	-1.200230	0.897239	0.123980	-0.911709	0.828220	1.549841	-6.658122	6.141751	0.000000	0.000000	25.903656	9.999988	-8.791715	29.115154	-14.112579	70.173631	57.672772	67.909717	7.378243	0.938130	20.725828	-17.677642	49.362180	69.226488	88.745743	13.237565	17.345927
